<svg width="143" height="86" viewBox="0 0 143 86" fill="none" xmlns="http://www.w3.org/2000/svg">
<path d="M0 79.1C7.7 73.4 14.9 74.4 20.6 75.3C25.9 76.1 30.1 76.7 35.2 73C40.3 69.2 40.9 65 41.7 59.7C42.5 54 43.6 46.9 51.3 41.1C59 35.4 66.2 36.4 71.9 37.3C77.2 38.1 81.4 38.7 86.5 35C91.6 31.2 92.2 27 93 21.7C93.8 16 94.9 8.89998 102.6 3.09998C110.3 -2.60002 117.5 -1.60001 123.2 -0.700012C128.5 0.0999878 132.7 0.7 137.8 -3L142.6 3.39996C134.9 9.09996 127.7 8.10001 122 7.20001C116.7 6.40001 112.5 5.8 107.4 9.5C102.3 13.3 101.7 17.5 100.9 22.8C100.1 28.5 99 35.6 91.3 41.4C83.6 47.1 76.4 46.1 70.7 45.2C65.4 44.4 61.2 43.8 56.1 47.5C51 51.3 50.4 55.5 49.6 60.8C48.8 66.5 47.7 73.6 40 79.4C32.3 85.1 25.1 84.1 19.4 83.2C14.1 82.4 9.89999 81.8 4.79999 85.5L0 79.1Z" fill="#F0F6FF"/>
</svg>
