<svg width="116" height="31" viewBox="0 0 116 31" version="1.1" xmlns="http://www.w3.org/2000/svg" xmlns:xlink="http://www.w3.org/1999/xlink">
    <title>pw-paddle-logo-dark</title>
    <g id="Symbols" stroke="none" stroke-width="1" fill="none" fill-rule="evenodd">
        <g id="Artboard" transform="translate(-51.000000, -48.000000)" fill-rule="nonzero">
            <g id="pw-paddle-logo-dark" transform="translate(51.000000, 48.000000)">
                <g id="Group">
                    <polygon id="Path" fill="#09B8A0" points="21.6479341 14.4239955 28.8539447 14.4239955 21.6479341 7.20811826"/>
                    <path d="M13.6861207,14.4382203 L7.96453805,14.4382203 C7.55048359,14.4382203 7.21462585,14.1032053 7.21391196,13.6894761 L7.21391196,13.6894761 L7.21391196,7.97108736 L7.21391196,7.97108736 C7.21391196,7.55685313 7.54997871,7.22104994 7.96453805,7.22104994 L13.687415,7.22104994 C14.1007541,7.22176327 14.4354527,7.55677864 14.4354527,7.96979419 L14.4354527,7.96979419 L14.4354527,13.6868898 C14.4354527,14.101124 14.0993859,14.4369272 13.6848266,14.4369272 M21.6453458,7.20553192 L15.4876234,1.05263872 L15.4876234,1.05263872 C15.184841,0.75012916 14.8307995,0.503632859 14.4419236,0.324585161 L14.4419236,0.332344167 C13.9702388,0.11389737 13.4566737,0.000498664343 12.9367889,0 L8.70998742,0 C7.76884659,0.000855190902 6.86556479,0.370427426 6.19409581,1.02936171 L6.19409581,1.02936171 L1.00701065,6.21237892 L1.00701065,6.22013793 C0.36064625,6.88991054 -0.000325488547,7.7842144 4.46096231e-05,8.71465894 L4.46096231e-05,20.1488501 C-0.00484638978,21.1311214 0.392636622,22.0726509 1.10019182,22.7545836 L1.10019182,22.7545836 L5.67642265,27.3272255 L5.67642265,27.3272255 C5.91689347,27.5614226 6.2672832,27.6434979 6.58686554,27.5404878 C6.90644788,27.4374775 7.14278993,27.1662823 7.20097013,26.8358217 L7.21650033,26.8358217 L7.21650033,22.4028419 L7.21650033,22.4028419 C7.21650033,21.9893219 7.55198765,21.6540976 7.96583224,21.6540976 L12.9329063,21.6540976 C13.8923845,21.6555926 14.812655,21.2738052 15.4889176,20.5936999 L15.4966827,20.5936999 L20.5439961,15.5503448 L20.5439961,15.5387063 C20.5970576,15.4882728 20.6449424,15.4326665 20.6954155,15.3796467 L21.6492283,14.4214092 L21.6453458,7.20553192 Z" id="Shape" fill="#21323B"/>
                    <path d="M28.8552388,25.660332 C28.8558823,25.6534501 28.8558823,25.6465232 28.8552388,25.6396413 L28.8552388,14.4239955 L21.6479341,14.4239955 L21.6479341,25.6396413 C21.6479341,25.6887817 21.640169,25.737922 21.640169,25.7870625 C21.6437185,26.7818944 22.4499414,27.5874851 23.4455542,27.5910318 L27.0563246,27.5910318 C28.005065,27.5904693 28.7912636,26.8557522 28.8552388,25.9099134 L28.8552388,25.660332 Z" id="Path" fill="#21323B"/>
                </g>
                <path d="M38.7120624,1.10549033 L43.447728,1.10549033 C45.3776519,1.10549033 47.0989603,1.10549033 48.1346861,2.5984113 C48.5840826,3.26994824 48.8009693,4.22637962 48.8009693,5.032039 C48.8076268,5.67110537 48.670979,6.30345234 48.4011994,6.88200301 C47.3838538,8.9965119 45.2168249,9.0464609 43.6159071,9.07976026 L41.663008,9.07976026 L41.663008,12.9563599 L38.7120624,12.9563599 L38.7120624,1.10549033 Z M41.663008,3.28659792 L41.663008,6.87830307 L43.4302668,6.87830307 C44.5330805,6.87830307 45.864728,6.84407877 45.864728,5.01538928 C45.864728,3.28659792 44.3805246,3.28659792 43.530439,3.28659792 L41.663008,3.28659792 Z" id="Shape" fill="#21323B"/>
                <path d="M52.33273,5.09956265 C52.89976,4.6130221 53.5164167,4.22637962 54.8508212,4.09225725 L54.8508212,6.37511287 L53.9998167,6.51386019 C52.7674224,6.72660605 52.3998179,6.91160243 52.3998179,8.01880591 L52.3998179,12.95266 L49.8321,12.95266 L49.8321,4.17643061 L52.33273,4.17643061 L52.33273,5.09956265 Z" id="Path" fill="#21323B"/>
                <path d="M64.8698832,8.55622047 C64.8698832,10.7715524 63.6034855,13.2042551 60.2022244,13.2042551 C57.7512211,13.2042551 55.5152664,11.7945825 55.5152664,8.55622047 C55.5152664,5.8737726 57.1988952,3.73983913 60.5330685,3.92483551 C64.0868855,4.12555661 64.8698832,6.96155143 64.8698832,8.55622047 Z M58.5351378,6.82742906 C58.2180789,7.33061926 58.1013644,7.93740748 58.1013644,8.53957076 C58.1013644,9.9325937 58.7676477,11.1572698 60.2022244,11.1572698 C61.5853365,11.1572698 62.269081,10.0334167 62.269081,8.65981843 C62.269081,7.68673738 62.0356521,6.93102708 61.5522521,6.46113617 C61.1482818,6.08325691 60.5986589,5.90506961 60.0515066,5.97459562 C59.3181355,6.02176975 58.8843622,6.27428985 58.5351378,6.82742906 L58.5351378,6.82742906 Z" id="Shape" fill="#21323B"/>
                <path d="M66.953282,3.32082225 C66.953282,2.88423074 66.9872854,2.29686716 67.3208865,1.8269763 C67.6379455,1.39038479 68.3547743,0.937143604 69.5550032,0.937143604 C70.0724066,0.937143604 70.588891,1.02131696 71.0897522,1.08884065 L71.0897522,3.01835314 L70.4721766,3.01835314 C69.5053766,3.01835314 69.45575,3.21999921 69.4722922,4.39472635 L71.1890054,4.39472635 L71.1890054,5.9671958 L69.4888344,5.9671958 L69.4888344,12.948035 L66.9367398,12.948035 L66.9367398,5.97182068 L65.5692509,5.97182068 L65.5692509,4.3993513 L66.953282,4.3993513 L66.953282,3.32082225 Z" id="Path" fill="#21323B"/>
                <path d="M72.4710263,1.08884065 L75.0074977,1.08884065 L75.0074977,3.08587682 L72.4710263,3.08587682 L72.4710263,1.08884065 Z M72.4710263,4.17643061 L75.0074977,4.17643061 L75.0074977,12.95266 L72.4710263,12.95266 L72.4710263,4.17643061 Z" id="Shape" fill="#21323B"/>
                <path d="M77.6230041,1.65955455 L80.1732607,1.65955455 L80.1732607,4.39472635 L81.8568893,4.39472635 L81.8568893,5.9671958 L80.1539616,5.9671958 L80.1539616,9.91039411 C80.1374192,10.4478087 80.1374192,10.9010499 80.8211639,10.9010499 L81.7401752,10.8668255 L81.7401752,12.8814364 C81.2942649,12.9632759 80.8424316,13.008134 80.3892282,13.0155588 C79.5051394,13.0155588 78.5383396,12.9646847 77.9887707,12.1590254 C77.6386274,11.6391855 77.6211659,11.0185226 77.6211659,10.1795639 L77.6211659,5.95887097 L76.3556874,5.95887097 L76.3556874,4.37715171 L77.6230041,4.37715171 L77.6230041,1.65955455 Z" id="Path" fill="#21323B"/>
                <path d="M91.4936426,1.10549033 C91.8437859,2.38104053 92.1939298,3.65566576 92.5771572,4.93121591 C93.227817,7.21407154 93.3445319,7.58313936 93.7112169,9.88171969 C94.0613608,7.53226535 94.1449908,7.12989817 94.6780173,4.71292017 C94.9279881,3.50489368 95.1954205,2.29686716 95.445392,1.10549033 L98.3632527,1.10549033 L95.3783038,12.95266 L92.3455664,12.95266 C91.9779616,11.6438104 91.6296566,10.3349609 91.2427527,9.04276096 C90.6095538,6.86165342 90.5764696,6.77748005 90.2254072,5.11621236 C89.9258091,6.57583396 89.8918058,6.69330669 89.2255226,8.95858766 L88.0914629,12.95266 L85.0587249,12.95266 L82.073776,1.10549033 L85.0081798,1.10549033 C86.2754961,6.72660605 86.4087527,7.34819391 86.7543011,9.91501905 C87.1880743,7.56648972 87.3057076,7.11324852 87.9214457,4.76379418 L88.8882454,1.10549033 L91.4936426,1.10549033 Z" id="Path" fill="#21323B"/>
                <path d="M106.981741,10.7206784 C106.681225,11.1739196 106.380708,11.610511 105.931312,12.0295279 C105.180479,12.7343642 104.046419,13.2717787 102.646765,13.2717787 C100.062505,13.2717787 98.2447003,11.6068112 98.2447003,8.73936691 C98.2447003,6.62485803 99.2785882,3.90633586 102.712934,3.90633586 C103.230337,3.90633586 104.734759,3.95628487 105.847682,5.16431143 C106.981741,6.38991257 107.04791,8.10112927 107.080995,9.09086003 L100.862964,9.09086003 C100.845503,10.1823389 101.462159,11.2728926 102.84619,11.2728926 C104.246764,11.2728926 104.730164,10.3479106 105.047223,9.72909767 L106.981741,10.7206784 Z M104.430566,7.48324129 C104.380021,7.11324852 104.313851,6.62763297 103.947166,6.24099049 C103.60738,5.9238192 103.159787,5.749709 102.696391,5.75444994 C102.202733,5.75342946 101.731175,5.96038441 101.39599,6.32516386 C101.045847,6.71088133 100.962217,7.11417352 100.879506,7.48324129 L104.430566,7.48324129 Z" id="Shape" fill="#21323B"/>
                <polygon id="Path" fill="#21323B" points="111.131997 1.10549033 111.131997 12.95266 108.564279 12.95266 108.564279 1.10549033"/>
                <polygon id="Path" fill="#21323B" points="116 1.10549033 116 12.95266 113.432282 12.95266 113.432282 1.10549033"/>
                <g id="PAD_logo_-Primary-Logo_-black" transform="translate(54.402985, 17.332974)" fill="#21323B">
                    <path d="M0,6.8669328 L0,6.50538843 C0.925870905,6.50516667 1.67638194,5.75764196 1.67660458,4.83545514 L2.01216749,4.83545514 C2.01163231,5.27873384 2.1880249,5.70404535 2.50249567,6.01771691 C2.81696644,6.33138847 3.2437222,6.50769244 3.68877208,6.50779873 L3.68877208,6.8693431 C2.76290117,6.86956486 2.01239014,7.61708957 2.01216749,8.53927639 L1.67660458,8.53927639 C1.67713977,8.09599769 1.50074718,7.67068618 1.18627641,7.35701462 C0.871805635,7.04334306 0.445049881,6.86703909 0,6.8669328 L0,6.8669328 Z M1.67660458,4.20837651 L4.56034834,4.20837651 C5.96874458,4.20837651 6.97502999,5.21025614 6.97502999,6.68013488 C6.97502999,8.15001361 5.96914791,9.15149153 4.56034834,9.15149153 L1.67660458,9.15149153 L1.67660458,13.359868 L2.88374375,13.359868 L2.88374375,10.2204577 L4.56034834,10.2204577 C6.58582542,10.2204577 8.18216916,8.63046592 8.18216916,6.68013488 C8.18216916,4.72980384 6.58582542,3.13941031 4.56034834,3.13941031 L1.67660458,3.13941031 L1.67660458,4.20837651 Z" id="Shape"/>
                    <path d="M12.5146412,3.12615368 C13.574165,3.12615368 14.5130958,3.66043593 15.1031542,4.5024326 L15.1031542,3.33986658 L16.3102933,3.33986658 L16.3102933,10.0200015 L15.1031542,10.0200015 L15.1031542,8.85743544 C14.498173,9.70103898 13.5608554,10.2337144 12.5146412,10.2337144 C10.5290929,10.2337144 8.85248834,8.67063751 8.85248834,6.68013488 C8.85248834,4.68963224 10.5290929,3.12615368 12.5146412,3.12615368 Z M12.5146412,9.16474816 C14.0702496,9.16474816 15.1031542,8.09618367 15.1031542,6.68013488 C15.1031542,5.25042774 14.0839625,4.19511988 12.5146412,4.19511988 C11.1195546,4.19511988 10.0596275,5.19699951 10.0596275,6.68013488 C10.0596275,8.16327024 11.1195546,9.16474816 12.5146412,9.16474816 Z" id="Shape"/>
                    <path d="M20.7766679,3.12615368 C21.836595,3.12615368 22.7755258,3.66043593 23.3655842,4.5024326 L23.3655842,0 L24.5727233,0 L24.5727233,10.0200015 L23.3655842,10.0200015 L23.3655842,8.85743544 C22.7755258,9.70103898 21.836595,10.2337144 20.7766679,10.2337144 C18.7915229,10.2337144 17.1149183,8.67063751 17.1149183,6.68013488 C17.1149183,4.68963224 18.7915229,3.12615368 20.7766679,3.12615368 Z M20.7766679,9.16474816 C22.3459892,9.16474816 23.3655842,8.1094403 23.3655842,6.68013488 C23.3655842,5.25082945 22.3459892,4.19511988 20.7766679,4.19511988 C19.3819846,4.19511988 18.3220575,5.19699951 18.3220575,6.68013488 C18.3220575,8.16327024 19.3819846,9.16474816 20.7766679,9.16474816 Z" id="Shape"/>
                    <path d="M29.1734037,3.12615368 C30.2329275,3.12615368 31.1718583,3.66043593 31.76232,4.5024326 L31.76232,0 L32.9694592,0 L32.9694592,10.0200015 L31.76232,10.0200015 L31.76232,8.85743544 C31.1718583,9.70103898 30.2329275,10.2337144 29.1734037,10.2337144 C27.1882587,10.2337144 25.5116542,8.67063751 25.5116542,6.68013488 C25.5116542,4.68963224 27.1882587,3.12615368 29.1734037,3.12615368 Z M29.1734037,9.16474816 C30.742725,9.16474816 31.76232,8.1094403 31.76232,6.68013488 C31.76232,5.25082945 30.742725,4.19511988 29.1734037,4.19511988 C27.7783171,4.19511988 26.7187933,5.19699951 26.7187933,6.68013488 C26.7187933,8.16327024 27.7783171,9.16474816 29.1734037,9.16474816 Z" id="Shape"/>
                    <polygon id="Path" points="34.176195 10.0200015 34.176195 0 35.3837375 0 35.3837375 10.0200015"/>
                    <path d="M39.8501121,3.13941031 C42.1704167,3.13941031 43.2835821,4.94311502 43.2835821,7.14773227 L37.4894754,7.14773227 C37.6770196,8.44326627 38.6429729,9.28526295 39.8501121,9.28526295 C40.6817596,9.28526295 41.3254596,8.91086366 41.8082346,8.17612515 L43.1093475,8.17612515 C42.6531917,9.20491975 41.4597654,10.2204577 39.8501121,10.2204577 C37.824635,10.2204577 36.2553138,8.60355095 36.2553138,6.68013488 C36.2553138,4.75671881 37.824635,3.13941031 39.8501121,3.13941031 Z M42.0764429,6.21253749 C42.0764429,5.11665632 41.1375121,4.07460509 39.8501121,4.07460509 C38.6429729,4.07460509 37.6770196,4.91820863 37.4894754,6.21253749 L42.0764429,6.21253749 Z" id="Shape"/>
                </g>
                <g id="by" transform="translate(38.555617, 18.020863)" fill="#21323B">
                    <path d="M0,0 L1.18369115,0 L1.18369115,3.60518503 C1.44973982,3.25796896 1.76764544,2.99304761 2.13740801,2.81042098 C2.50717058,2.62779434 2.90849824,2.53648103 3.34139101,2.53648103 C4.24325093,2.53648103 4.97488479,2.84649537 5.53629259,3.46652407 C6.09770039,4.08655276 6.37840429,5.00081326 6.37840429,6.20930555 C6.37840429,7.35466765 6.10108236,8.30612987 5.54643851,9.0636922 C4.99179466,9.82125453 4.22295908,10.2000357 3.23993176,10.2000357 C2.68979721,10.2000357 2.22533935,10.0670114 1.84655819,9.80096268 C1.62109321,9.6431372 1.37984568,9.39061642 1.1228156,9.04340035 L1.1228156,9.97006142 L0,9.97006142 L0,0 Z M3.16552832,9.12456774 C3.82388606,9.12456774 4.31652704,8.86302837 4.64345127,8.33994961 C4.97037549,7.81687086 5.1338376,7.12694802 5.1338376,6.2701811 C5.1338376,5.50810946 4.97037549,4.87680752 4.64345127,4.37627526 C4.31652704,3.87574301 3.83515931,3.62547688 3.19934807,3.62547688 C2.64470422,3.62547688 2.15882718,3.83065001 1.74171697,4.24099628 C1.32460676,4.65134254 1.11605165,5.32773748 1.11605165,6.2701811 C1.11605165,6.95108534 1.20172834,7.50347454 1.37308173,7.9273487 C1.693242,8.72549473 2.2907242,9.12456774 3.16552832,9.12456774 Z" id="Shape"/>
                    <path d="M11.9776016,2.72587161 L13.3236275,2.72587161 C13.1522741,3.19032947 12.7712383,4.25001487 12.1805201,5.90492783 C11.7386087,7.14949452 11.3688461,8.16408693 11.0712324,8.94870506 C10.3677816,10.7975179 9.87175868,11.9248428 9.58316351,12.3306798 C9.29456833,12.7365167 8.79854537,12.9394352 8.09509464,12.9394352 C7.92374125,12.9394352 7.79184424,12.9326713 7.6994036,12.9191434 C7.60696295,12.9056155 7.49310314,12.8808143 7.35782415,12.8447399 L7.35782415,11.7354522 C7.56976123,11.7940731 7.72307742,11.8301475 7.81777271,11.8436754 C7.912468,11.8572033 7.99589005,11.8639673 8.06803884,11.8639673 C8.29350382,11.8639673 8.45922058,11.8267655 8.56518912,11.7523621 C8.67115766,11.6779586 8.76021633,11.5866453 8.83236512,11.4784221 C8.85491162,11.4423477 8.93607901,11.2574665 9.0758673,10.9237783 C9.21565559,10.5900901 9.31711483,10.3420786 9.38024502,10.1797439 L6.70172106,2.72587161 L8.08156674,2.72587161 L10.0228202,8.62403549 L11.9776016,2.72587161 Z" id="Path"/>
                </g>
            </g>
        </g>
    </g>
</svg>